<svg xmlns="http://www.w3.org/2000/svg" version="1.1" xmlns:xlink="http://www.w3.org/1999/xlink" xmlns:svgjs="http://svgjs.dev/svgjs" viewBox="0 0 800 800" opacity="1"><defs><linearGradient x1="50%" y1="0%" x2="50%" y2="100%" id="hhhorizon-grad"><stop stop-color="hsl(30, 100%, 50%)" stop-opacity="1" offset="25%"></stop><stop stop-color="hsl(30, 100%, 70%)" stop-opacity="1" offset="100%"></stop></linearGradient><linearGradient x1="50%" y1="0%" x2="50%" y2="100%" id="hhhorizon-grad2"><stop stop-color="hsl(30, 100%, 70%)" stop-opacity="1" offset="0%"></stop><stop stop-color="hsl(30, 100%, 50%)" stop-opacity="1" offset="75%"></stop></linearGradient><clipPath id="SvgjsClipPath1037"><rect width="800" height="55" x="0" y="0"></rect><rect width="800" height="54" x="0" y="15"></rect><rect width="800" height="53" x="0" y="30"></rect><rect width="800" height="52" x="0" y="44"></rect><rect width="800" height="51" x="0" y="59"></rect><rect width="800" height="50" x="0" y="74"></rect><rect width="800" height="49" x="0" y="89"></rect><rect width="800" height="48" x="0" y="104"></rect><rect width="800" height="47" x="0" y="119"></rect><rect width="800" height="46" x="0" y="133"></rect><rect width="800" height="45" x="0" y="148"></rect><rect width="800" height="44" x="0" y="163"></rect><rect width="800" height="43" x="0" y="178"></rect><rect width="800" height="42" x="0" y="193"></rect><rect width="800" height="41" x="0" y="207"></rect><rect width="800" height="40" x="0" y="222"></rect><rect width="800" height="39" x="0" y="237"></rect><rect width="800" height="38" x="0" y="252"></rect><rect width="800" height="37" x="0" y="267"></rect><rect width="800" height="36" x="0" y="281"></rect><rect width="800" height="35" x="0" y="296"></rect><rect width="800" height="34" x="0" y="311"></rect><rect width="800" height="33" x="0" y="326"></rect><rect width="800" height="32" x="0" y="341"></rect><rect width="800" height="31" x="0" y="356"></rect><rect width="800" height="30" x="0" y="370"></rect><rect width="800" height="29" x="0" y="385"></rect><rect width="800" height="28" x="0" y="400"></rect><rect width="800" height="27" x="0" y="415"></rect><rect width="800" height="26" x="0" y="430"></rect><rect width="800" height="25" x="0" y="444"></rect><rect width="800" height="24" x="0" y="459"></rect><rect width="800" height="23" x="0" y="474"></rect><rect width="800" height="22" x="0" y="489"></rect><rect width="800" height="21" x="0" y="504"></rect><rect width="800" height="20" x="0" y="519"></rect><rect width="800" height="19" x="0" y="533"></rect><rect width="800" height="18" x="0" y="548"></rect><rect width="800" height="17" x="0" y="563"></rect><rect width="800" height="16" x="0" y="578"></rect><rect width="800" height="15" x="0" y="593"></rect><rect width="800" height="14" x="0" y="607"></rect><rect width="800" height="13" x="0" y="622"></rect><rect width="800" height="12" x="0" y="637"></rect><rect width="800" height="11" x="0" y="652"></rect><rect width="800" height="10" x="0" y="667"></rect><rect width="800" height="9" x="0" y="681"></rect><rect width="800" height="8" x="0" y="696"></rect><rect width="800" height="7" x="0" y="711"></rect><rect width="800" height="6" x="0" y="726"></rect><rect width="800" height="5" x="0" y="741"></rect><rect width="800" height="4" x="0" y="756"></rect><rect width="800" height="3" x="0" y="770"></rect><rect width="800" height="2" x="0" y="785"></rect><rect width="800" height="1" x="0" y="800"></rect></clipPath><clipPath><rect width="800" height="1" x="0" y="55"></rect><rect width="800" height="2" x="0" y="110"></rect><rect width="800" height="3" x="0" y="165"></rect><rect width="800" height="4" x="0" y="220"></rect><rect width="800" height="5" x="0" y="275"></rect><rect width="800" height="6" x="0" y="330"></rect><rect width="800" height="7" x="0" y="385"></rect><rect width="800" height="8" x="0" y="440"></rect><rect width="800" height="9" x="0" y="495"></rect><rect width="800" height="10" x="0" y="550"></rect><rect width="800" height="11" x="0" y="605"></rect><rect width="800" height="12" x="0" y="660"></rect><rect width="800" height="13" x="0" y="715"></rect><rect width="800" height="14" x="0" y="770"></rect><rect width="800" height="15" x="0" y="825"></rect></clipPath></defs><rect width="800" height="800" fill="url(#hhhorizon-grad)" clip-path="url(&quot;#SvgjsClipPath1037&quot;)"></rect><circle r="400" cx="400" cy="0" fill="url(#hhhorizon-grad)" clip-path="url(&quot;#SvgjsClipPath1037&quot;)"></circle><circle r="400" cx="400" cy="800" fill="url(#hhhorizon-grad)" clip-path="url(&quot;#SvgjsClipPath1037&quot;)"></circle></svg>