<svg xmlns="http://www.w3.org/2000/svg" version="1.1" xmlns:xlink="http://www.w3.org/1999/xlink" viewBox="0 0 700 800" style="overflow: hidden; display: block;" width="600" height="600"><defs></defs><g id="two-0" transform="matrix(1 0 0 1 0 0)" opacity="1"><path transform="matrix(1 0 0 1 350 350)" id="two-192" d="M 246.221813 72.297247 C 225.289922 112.757976 130.945893 30.066803 108.205351 69.539357 C 72.621813 131.304514 249.096427 189.010434 220.267969 254.202787 C 207.260973 283.616661 154.470279 284.813935 124.612022 272.862267 C 67.871757 250.150264 77.998399 113.041299 17.507865 121.769882 C -43.306939 130.545257 18.210834 290.91867 -42.833996 297.916981 C -76.159116 301.737445 -65.315774 223.591444 -96.682865 211.705942 C -134.253883 197.469671 -188.092906 277.488277 -213.416693 246.295992 C -252.918995 197.639485 -100.979618 137.777015 -123.198592 79.174927 C -131.318654 57.75843 -166.989005 63.514516 -188.373891 55.311564 C -234.139045 37.756673 -322.922883 48.905121 -326.22631 0 C -329.070042 -42.099651 -229.232105 -23.404271 -215.038241 -63.140925 C -203.16423 -96.383001 -271.618387 -132.621879 -253.5383 -162.939172 C -236.302672 -191.840448 -177.094512 -153.019307 -152.390238 -175.867709 C -125.560527 -200.681879 -165.425867 -276.009396 -129.830727 -284.289637 C -72.819514 -297.551746 -79.190196 -140.882369 -20.763271 -144.411719 C 14.104903 -146.517974 8.940199 -210.581103 33.804647 -235.116489 C 61.083731 -262.034554 101.076317 -313.087821 134.106645 -293.652594 C 174.606812 -269.822073 130.266395 -198.271244 131.091322 -151.287452 C 131.466718 -129.906771 120.508335 -102.553303 134.736909 -86.590155 C 157.206035 -61.381867 221.703857 -99.959625 235.572425 -69.170306 C 246.591039 -44.708113 191.740927 -26.806356 192.849097 -0.000001 C 194.073989 29.629812 259.848072 45.958089 246.221813 72.297247 Z " fill="#ff8a05" stroke="undefined" stroke-width="1" stroke-opacity="1" fill-opacity="1" visibility="visible" stroke-linecap="butt" stroke-linejoin="miter" stroke-miterlimit="4"></path></g></svg>