<svg xmlns="http://www.w3.org/2000/svg" version="1.1" xmlns:xlink="http://www.w3.org/1999/xlink" viewBox="0 0 700 700" style="overflow: hidden; display: block;" width="900" height="500"><defs></defs><g id="two-0" transform="matrix(1 0 0 1 0 0)" opacity="1"><path transform="matrix(1 0 0 1 350 350)" id="two-2" d="M 248.696574 73.023902 C 235.121998 98.033464 183.086701 84.073517 170.636379 109.661342 C 153.029455 145.846983 231.757429 206.60107 197.994455 228.497782 C 148.441382 260.635039 108.572335 95.573274 55.12278 120.702052 C -4.527797 148.746179 105.863004 292.554568 46.042866 320.235167 C 14.663101 334.755539 -11.857856 280.036665 -36.823823 256.115308 C -56.032565 237.710285 -70.488389 213.787143 -88.83588 194.523442 C -102.55683 180.117316 -116.242013 164.233431 -132.948058 153.430237 C -152.172022 140.998798 -177.887372 139.294555 -196.89729 126.538204 C -217.50071 112.712553 -233.243732 91.618504 -250.139509 73.447586 C -271.926837 50.015946 -312.667255 31.986602 -313.433185 0 C -314.183689 -31.342357 -278.586449 -54.280432 -254.93003 -74.854211 C -233.966696 -93.085838 -194.492372 -92.155717 -182.047136 -116.99459 C -166.00097 -149.020393 -210.008977 -192.368461 -194.783978 -224.792694 C -182.902431 -250.096477 -149.77378 -260.783262 -123.704424 -270.874903 C -97.880275 -280.871622 -66.226562 -295.752722 -40.909699 -284.533207 C -3.675444 -268.032336 -5.989744 -206.036682 25.999482 -180.830374 C 39.396539 -170.273996 60.542648 -173.137374 74.779514 -163.744297 C 88.842722 -154.465794 95.378525 -135.642848 109.253856 -126.085673 C 124.980425 -115.253385 144.720889 -110.112408 163.061236 -104.793094 C 201.026057 -93.782027 263.362475 -117.937178 280.741807 -82.433233 C 294.17409 -54.992646 243.695097 -30.12373 238.598731 -0.000001 C 234.540695 23.986343 260.301531 51.643133 248.696574 73.023902 Z " fill="hsl(32, 100%, 51%)" stroke="undefined" stroke-width="1" stroke-opacity="1" fill-opacity="1" visibility="visible" stroke-linecap="butt" stroke-linejoin="miter" stroke-miterlimit="4"></path></g></svg>