<svg xmlns="http://www.w3.org/2000/svg" version="1.1" xmlns:xlink="http://www.w3.org/1999/xlink" viewBox="100 0 1000 900"  style="overflow: hidden; display: block;" width="600" height="600"><defs></defs><g id="two-0" transform="matrix(1 0 0 1 0 0)" opacity="1"><path transform="matrix(1 0 0 1 350 350)" id="two-146" d="M 331.265395 97.268296 C 310.04903 164.421964 175.420722 34.414255 118.877766 76.398101 C 105.511771 86.322518 109.280104 109.238434 109.079859 125.884868 C 108.346996 186.808187 196.973356 284.764794 140.571567 307.808796 C 75.17323 334.528505 88.842329 121.504559 18.928038 131.647401 C -52.000346 141.937364 22.889935 343.064149 -48.606413 338.065024 C -104.301525 334.170744 -28.82968 197.340807 -78.326323 171.510723 C -116.055953 151.821317 -154.153586 235.908189 -195.428627 225.536657 C -222.413267 218.755997 -248.506319 185.94874 -246.197027 158.221221 C -241.23831 98.682243 -98.334195 91.139445 -114.773383 33.700505 C -130.105641 -19.870795 -266.406258 53.979905 -280.231315 0 C -287.973492 -30.229312 -233.464825 -42.979653 -208.05271 -61.089788 C -189.697799 -74.170553 -158.988897 -75.603949 -149.329608 -95.968312 C -136.119057 -123.819684 -183.969313 -165.564647 -163.20065 -188.34359 C -145.553298 -207.699097 -108.470131 -193.065895 -83.956358 -183.838781 C -58.557903 -174.278667 -46.12264 -130.193587 -19.152598 -133.209246 C 4.949445 -135.904218 3.910006 -183.853315 27.336349 -190.12849 C 44.624091 -194.759328 64.527157 -182.625494 78.04634 -170.897648 C 92.105869 -158.701054 87.965339 -128.312125 105.291581 -121.512963 C 161.001615 -99.65124 246.20448 -229.349774 277.508364 -178.343797 C 311.18158 -123.477273 149.863238 -104.323189 139.122187 -40.849961 C 136.620219 -26.064817 148.748194 -10.920247 159.024796 -0.000001 C 203.76012 47.537186 350.930605 35.024318 331.265395 97.268296 Z " fill="#ff8a05" stroke="undefined" stroke-width="1" stroke-opacity="1" fill-opacity="1" visibility="visible" stroke-linecap="butt" stroke-linejoin="miter" stroke-miterlimit="4"></path></g></svg>